<svg width="13" height="13" viewBox="0 0 13 13" fill="none" xmlns="http://www.w3.org/2000/svg">
<path d="M11.9988 4.83258V0.684211C11.9988 0.502747 11.9286 0.328715 11.8035 0.200401C11.6785 0.0720862 11.509 0 11.3322 0H10.6656C9.34639 1.35405 6.86797 2.11216 5.33279 2.47205V9.84374C6.86797 10.2036 9.34639 10.9617 10.6656 12.3158H11.3322C11.509 12.3158 11.6785 12.2437 11.8035 12.1154C11.9286 11.9871 11.9988 11.813 11.9988 11.6316V7.48321C12.2853 7.40761 12.5391 7.23636 12.7204 6.99643C12.9016 6.7565 13 6.46151 13 6.15789C13 5.85428 12.9016 5.55929 12.7204 5.31936C12.5391 5.07943 12.2853 4.90818 11.9988 4.83258ZM1.3332 2.73684C0.979612 2.73684 0.640508 2.88101 0.390485 3.13764C0.140462 3.39427 0 3.74234 0 4.10526V8.21053C0 8.57345 0.140462 8.92152 0.390485 9.17815C0.640508 9.43477 0.979612 9.57895 1.3332 9.57895H1.9998L2.6664 13H3.9996V2.73684H1.3332Z" fill="white"/>
</svg>
