<svg width="13" height="13" viewBox="0 0 13 13" fill="none" xmlns="http://www.w3.org/2000/svg">
<path d="M4.74467 0H8.25533C8.98333 0 9.56067 -5.21541e-08 10.0253 0.0379999C10.5013 0.0766666 10.9033 0.158 11.2713 0.344667C11.8671 0.648563 12.3513 1.13328 12.6547 1.72933C12.842 2.096 12.9233 2.49867 12.962 2.97467C13 3.43933 13 4.01667 13 4.74467V8.25533C13 8.98333 13 9.56067 12.962 10.0253C12.9233 10.5013 12.842 10.9033 12.6553 11.2713C12.3516 11.867 11.8671 12.3512 11.2713 12.6547C10.9033 12.842 10.5013 12.9233 10.0253 12.962C9.56067 13 8.98333 13 8.25533 13H4.74467C4.01667 13 3.43933 13 2.97467 12.962C2.49867 12.9233 2.09667 12.842 1.72933 12.6553C1.13343 12.3517 0.648943 11.8672 0.345333 11.2713C0.158 10.9033 0.0766666 10.5013 0.0379999 10.0253C-5.21541e-08 9.56067 0 8.98333 0 8.25533V4.74467C0 4.01667 -5.21541e-08 3.43933 0.0379999 2.97467C0.0766666 2.49867 0.158 2.09667 0.344667 1.72933C0.64845 1.13332 1.13318 0.64883 1.72933 0.345333C2.096 0.158 2.49867 0.0766666 2.97467 0.0379999C3.43933 -5.21541e-08 4.01667 0 4.74467 0ZM3.056 1.03467C2.64267 1.068 2.386 1.13267 2.18267 1.236C1.77509 1.44371 1.44371 1.77509 1.236 2.18267C1.13267 2.386 1.06867 2.64267 1.03467 3.056C1.00067 3.476 1 4.012 1 4.76667V8.23333C1 8.98867 1 9.52467 1.03467 9.944C1.068 10.3573 1.13267 10.614 1.236 10.8173C1.44371 11.2249 1.77509 11.5563 2.18267 11.764C2.386 11.8673 2.64267 11.9313 3.056 11.9653C3.31733 11.9867 3.62333 11.9947 4 11.9987V1.00133C3.62333 1.00467 3.31733 1.01333 3.056 1.03467Z" fill="white"/>
</svg>
